;[gain=1.0;name=so88e024]
#opll_mode 0
#tempo 98
#title { "Red Dragon (Mage in the Dark Marsh)" } ;  Music from Sorcerian / Copyright (c) Nihon Falcom Corporation

@v15 = {
;       TL FB
         1, 2,
; AR DR SL RR KL MT AM VB EG KR DT
  15, 0, 0, 1, 0, 1, 1, 0, 0, 0, 1,
  15, 0, 0, 1, 0, 2, 0, 0, 0, 0, 0 }

@e9={2,0,fc0=22}
@e10={1,0,f0=16}

; 9ADEFG123 !

9A q8r4r12
9A [;L
9 @15h1,3,0,1v9 o5 \0
A @15h1,3,0,1v8 o6 \1
9A e16r48r24e48r48r24e48r48r24e6&e48r48f48r48r24f48r48r24
9A e16r48r24e48r48r24e48r48r24e6&e48r48d48r48c48r48<a48r48g48r48>
9A e16r48r24e48r48r24e48r48r24e6&e48r48f48r48r24f48r48r24
9A e16r48r24e48r48r24e48r48r24e6&e48r48d48r48c48r48<a48r48g48r48
9A a48r48a48r48a48r48>c16r48c16r48d48r48e48r48e48r48e48r48g16r48g16r48a48r48r4r12
9A a48r48g48r48a48r48b48r48>c48r48<b48r48>c48r48d48r48
9A [e48r48<a48r48>c48r48f48r48<a48r48>c48r48g48r48<a48r48>c48r48f48r48<a48r48>c48r48e48r48<a48r48>f48r48<a48r48>]2
9A [d48r48<g48r48b48r48>e48r48<g48r48b48r48>f48r48<g48r48b48r48>e48r48<g48r48b48r48>d48r48<g48r48>e48r48<g48r48>]2
9A [e48r48<a48r48>c48r48f48r48<a48r48>c48r48g48r48<a48r48>c48r48f48r48<a48r48>c48r48e48r48<a48r48>f48r48<a48r48>]2
9A [d48r48<g48r48b48r48>e48r48<g48r48b48r48>f48r48<g48r48b48r48>e48r48<g48r48b48r48>d48r48<g48r48>e48r48<g48r48>]2
9A <a48r48f48r48c48r48f16r48g48r48a16r48 b48r48g48r48d48r48g16r48a48r48b16r48
9A >c48r48<b48r48a48r48g48r48a48r48g48r48e48r48d48r48h10,122,0,2e4&e16r48
9A ]0

BC q8r4r12[;L
BC r48
B @15h1,3,0,1v9 o4 \0
C @15h1,3,0,1v8 o5 \1
BC a16r48r24a48r48r24a48r48r24a6&a48r48a+48r48r24a+48r48r24
BC a16r48r24a48r48r24a48r48r24a6&a48r48g48r48f48r48d48r48c48r48
BC a16r48r24a48r48r24a48r48r24a6&a48r48a+48r48r24a+48r48r24
BC a16r48r24a48r48r24a48r48r24a6&a48r48g48r48f48r48d48r48c48r48
BC e48r48e48r48e48r48g16r48g16r48a48r48a48r48a48r48a48r48>c16r48c16r48d48r48
BC r4r12f48r48e48r48f48r48g48r48a48r48g48r48a48r48b48r48
B \-1
C \0
BC [e48r48<a48r48>c48r48f48r48<a48r48>c48r48g48r48<a48r48>c48r48f48r48<a48r48>c48r48e48r48<a48r48>f48r48<a48r48>]2
BC [d48r48<g48r48b48r48>e48r48<g48r48b48r48>f48r48<g48r48b48r48>e48r48<g48r48b48r48>d48r48<g48r48>e48r48<g48r48>]2
BC [e48r48<a48r48>c48r48f48r48<a48r48>c48r48g48r48<a48r48>c48r48f48r48<a48r48>c48r48e48r48<a48r48>f48r48<a48r48>]2
BC [d48r48<g48r48b48r48>e48r48<g48r48b48r48>f48r48<g48r48b48r48>e48r48<g48r48b48r48>d48r48<g48r48>e48r48<g48r48>]2
BC f48r48c48r48<a48r48>c48&)c6(r48 g48r48d48r48<b48r48>d48&)d6(r48
BC a48r48g48r48e48r48d48r48e48r48d48r48c48r48<b48r48h10,122,0,2>c4&c24r48
BC ]0

@e8={0,0,f0=72}

F q8y14,32v12soq1h1,72,0,-14 @1@e8
F o4 a48g48a24e24c24g48f48g24e24c24
F [;L
F v12
F [<a12r24a24>a12r24<a24a12r24a24>a24a24e24e24]4
F [a48a48a24a24a24g24g24e24e24c24c24c24c24r24c24r24c24]2
F [<a12r24a24>a12r24<a24a12r24a24>a24a24e24c24]9
F a48a48a12a24e48e48e24c24c24<a12r24a24>a24a24<a24r24>
F ]0

G q8v9 @14o1
G c48c48c24c24c24c48c48c24c24c24
G [;L
G v10
G [c12r24c24c12r24c24c12r24c24c24c24c24c24]4
G [c48c48c24c24c24c24c24c24c24c24c24c24c24r24c24r24c24]2
G [c12r24c24c12r24c24c12r24c24c24c24c24c24]9
G c48c48c12c24c48c48c24c24c24c12r24c24c24c24c24r24
G ]0

1 q8r4r12
1 [;L
1 @10v11o1
1 [a24a24a24a24]3 a+24a+24a+24a+24
1 [a24a24a24a24]3 g24e24d24c24
1 [a24a24a24a24]3 a+24a+24a+24a+24
1 [a24a24a24a24]3 g24e24d24c24
1 [a24a24a24>c12c12d24<]2
1 r4r12f24f24>f24f24<g24g24>g24g24
1 [<a24a24a24a24>]8[<g24g24g24g24>]8[<a24a24a24a24>]8
1 [<g24g24g24g24>]8[<f24>]8[<g24>]8[<a24>]8
1 <f24c24f24g12g24d24g24
1 ]0

2 q8r4r12[;L
2 @10v11o2
2 [a24a24a24a24]3a+24a+24a+24a+24
2 [a24a24a24a24]3g24e24d24c24
2 [a24a24a24a24]3a+24a+24a+24a+24
2 [a24a24a24a24]3g24e24d24c24
2 [a24a24a24>c12c12d24<]2
2 r4r12f24f24>f24f24<g24g24>g24g24
2 [<a24a24a24a24>]8[<g24g24g24g24>]8[<a24a24a24a24>]8
2 [<g24g24g24g24>]8[<f24>]8[<g24>]8[<a24>]8
2 <f24c24f24g12g24d24g24
2 ]0

3 l8 q8 @9 v9 [n10c48c48c24c24c24]2 
3 [;L 
3 n0 [c24c24c24c24]4 [c24c24c24c24]12 
3 n10 c48c48c24c24c24c24c24c24c24r4r12 c48c48c24c24c24c24c24c24c24 n0c6c6 
3 n0 [c24c24c24c24]36 n10 [c24c24c24c24]4
3 ]0
